# xmcd CD database file
#
# Track frame offsets:
#	150
#	26561
#	44501
#	59279
#
# Disc length: 984 seconds
#
# Revision: 0
# Processed by: cddbd v1.5.1PL2 Copyright (c) Steve Scherf et al.
# Submitted via: CDex 1.51
#
DISCID=2f03d604
DTITLE=Martina Mcbride - Martina/MM's Greatest Hits
DYEAR=2001
DGENRE=Country
TTITLE0=God's Will-Martina
TTITLE1=How Far-Martina
TTITLE2=In My Daughter's Eye-Martina
TTITLE3=Valentine-Martina McBride's Greatest Hits 
EXTD=YEAR: 2001
EXTT0=
EXTT1=
EXTT2=
EXTT3=
PLAYORDER=
